<svg class="text-foreground" width="133" height="28" viewBox="0 0 133 28" fill="none" xmlns="http://www.w3.org/2000/svg">
<g clip-path="url(#clip0_2_34)">
<path d="M1.62 28C1.5 28 1.44 27.94 1.44 27.82L1.512 3.088C1.512 2.992 1.56 2.944 1.656 2.944H13.176C13.296 2.944 13.356 2.992 13.356 3.088V7.156C13.356 7.252 13.308 7.3 13.212 7.3H5.832V12.88H13.212C13.308 12.88 13.356 12.94 13.356 13.06L13.392 17.128C13.392 17.224 13.332 17.272 13.212 17.272H5.832V27.82C5.832 27.94 5.772 28 5.652 28H1.62ZM16.7723 28C16.6523 28 16.5923 27.94 16.5923 27.82L16.6283 3.088C16.6283 2.992 16.6763 2.944 16.7723 2.944H20.8043C20.9003 2.944 20.9483 2.992 20.9483 3.088L20.9843 27.82C20.9843 27.94 20.9363 28 20.8403 28H16.7723ZM24.2949 28C24.1989 28 24.1509 27.94 24.1509 27.82L24.1869 3.124C24.1869 3.004 24.2469 2.944 24.3669 2.944H28.3629C28.4829 2.944 28.5429 3.004 28.5429 3.124L28.5069 23.572H35.9229C36.0429 23.572 36.1029 23.632 36.1029 23.752V27.82C36.1029 27.94 36.0429 28 35.9229 28H24.2949ZM38.6035 28C38.5075 28 38.4595 27.94 38.4595 27.82L38.5315 3.088C38.5315 2.992 38.5795 2.944 38.6755 2.944H43.0675C43.1635 2.944 43.2475 2.992 43.3195 3.088L46.5955 7.84L49.8715 3.088C49.9435 2.992 50.0275 2.944 50.1235 2.944H54.5515C54.6475 2.944 54.6955 2.992 54.6955 3.088L54.7675 27.82C54.7675 27.94 54.7195 28 54.6235 28H50.5555C50.4595 28 50.4115 27.94 50.4115 27.82L50.3755 9.46L46.5955 14.932L42.8515 9.46L42.8155 27.82C42.8155 27.94 42.7675 28 42.6715 28H38.6035ZM57.9395 28C57.8435 28 57.7955 27.94 57.7955 27.82L57.8675 3.088C57.8675 2.992 57.9155 2.944 58.0115 2.944H64.9235C66.2915 2.944 67.5155 3.28 68.5955 3.952C69.6755 4.6 70.5275 5.464 71.1515 6.544C71.7755 7.624 72.0875 8.8 72.0875 10.072C72.0875 11.104 71.8475 12.064 71.3675 12.952C70.9115 13.84 70.3595 14.56 69.7115 15.112C70.4075 15.808 70.9475 16.612 71.3315 17.524C71.7155 18.436 71.9075 19.396 71.9075 20.404C71.9075 21.796 71.5715 23.068 70.8995 24.22C70.2275 25.372 69.3155 26.296 68.1635 26.992C67.0355 27.664 65.7755 28 64.3835 28H57.9395ZM62.1875 12.88H64.9235C65.7635 12.88 66.4355 12.592 66.9395 12.016C67.4675 11.416 67.7315 10.768 67.7315 10.072C67.7315 9.304 67.4555 8.644 66.9035 8.092C66.3515 7.516 65.6915 7.228 64.9235 7.228H62.1875V12.88ZM62.1515 23.608H64.3835C65.2475 23.608 65.9915 23.296 66.6155 22.672C67.2395 22.024 67.5515 21.268 67.5515 20.404C67.5515 19.54 67.2395 18.796 66.6155 18.172C65.9915 17.548 65.2475 17.236 64.3835 17.236H62.1875L62.1515 23.608ZM81.1547 28.36C79.8587 28.36 78.6707 28.036 77.5907 27.388C76.5347 26.716 75.6827 25.84 75.0347 24.76C74.3867 23.656 74.0627 22.444 74.0627 21.124L74.0987 9.712C74.0987 8.392 74.4107 7.192 75.0347 6.112C75.6827 5.032 76.5467 4.168 77.6267 3.52C78.7067 2.872 79.8827 2.548 81.1547 2.548C82.4507 2.548 83.6267 2.872 84.6827 3.52C85.7387 4.168 86.5787 5.032 87.2027 6.112C87.8507 7.192 88.1747 8.392 88.1747 9.712L88.2107 21.124C88.2107 22.444 87.8867 23.656 87.2387 24.76C86.6147 25.84 85.7627 26.716 84.6827 27.388C83.6267 28.036 82.4507 28.36 81.1547 28.36ZM81.1547 24.004C81.8747 24.004 82.4987 23.716 83.0267 23.14C83.5787 22.54 83.8547 21.868 83.8547 21.124L83.8187 9.712C83.8187 8.92 83.5667 8.248 83.0627 7.696C82.5587 7.144 81.9227 6.868 81.1547 6.868C80.4107 6.868 79.7747 7.144 79.2467 7.696C78.7187 8.224 78.4547 8.896 78.4547 9.712V21.124C78.4547 21.916 78.7187 22.6 79.2467 23.176C79.7747 23.728 80.4107 24.004 81.1547 24.004ZM88.3904 28C88.2944 28 88.2584 27.94 88.2824 27.82L92.3864 14.968L88.3544 3.088C88.3304 2.992 88.3664 2.944 88.4624 2.944H92.4944C92.6144 2.944 92.6864 2.992 92.7104 3.088L95.1224 11.656L97.5704 3.088C97.5944 2.992 97.6664 2.944 97.7864 2.944H101.782C101.878 2.944 101.914 2.992 101.89 3.088L97.8584 14.932L101.926 27.82C101.974 27.94 101.938 28 101.818 28H97.7864C97.6904 28 97.6184 27.94 97.5704 27.82L95.1224 18.532L92.6384 27.82C92.6144 27.94 92.5424 28 92.4224 28H88.3904Z" fill="white"/>
<path d="M130.408 7.25L109.625 13.2917L108.537 10.3917C108.175 9.0625 108.9 7.73333 110.108 7.37083L126.421 2.5375C127.75 2.175 129.079 2.9 129.442 4.10833L130.408 7.25Z" stroke="white" stroke-width="2.33333" stroke-linecap="round" stroke-linejoin="round"/>
<path d="M113.492 6.40417L117.238 11.1167" stroke="white" stroke-width="2.33333" stroke-linecap="round" stroke-linejoin="round"/>
<path d="M120.983 4.10833L124.729 8.94167" stroke="white" stroke-width="2.33333" stroke-linecap="round" stroke-linejoin="round"/>
<path d="M109.625 13.2917H131.375V22.9583C131.375 23.5993 131.12 24.214 130.667 24.6672C130.214 25.1204 129.599 25.375 128.958 25.375H112.042C111.401 25.375 110.786 25.1204 110.333 24.6672C109.88 24.214 109.625 23.5993 109.625 22.9583V13.2917Z" stroke="white" stroke-width="2.33333" stroke-linecap="round" stroke-linejoin="round"/>
</g>
<defs>
<clipPath id="clip0_2_34">
<rect width="133" height="28" fill="white"/>
</clipPath>
</defs>
</svg>
